<svg class="clickable" version="1.1" xmlns="http://www.w3.org/2000/svg">
 <g class="replace" >
  <path class="hfill rfill cline stand" d="m24.691 0h-19.691c-2.216 0-4 1.784-4 4v20c0 2.216 1.784 4 4 4h19.691" />
  <path class="normal" d="m21.561 10.184v-0.03232c-0.48482-0.64643-1.0666-1.1959-1.7453-1.713v0.032323c-0.54946 0.42017-1.0989 0.87267-1.6161 1.3252-0.22625-0.12928-0.42018-0.22625-0.6141-0.32321-0.25857-0.12928-0.51714-0.25857-0.80803-0.32321-0.09697-0.032323-0.19393-0.064646-0.29089-0.064646-0.06464-0.71106-0.12928-1.4221-0.22625-2.1332-0.32321-0.064646-0.64642-0.064646-1.002-0.096969h-0.51714c-0.32321 0.032323-0.6141 0.032323-0.90499 0.096969-0.09697 0.67874-0.16161 1.3898-0.19393 2.1009-0.12928 0-0.22625 0.032323-0.35553 0.064646-0.03232 0-0.06465 0-0.09697 0.032323-0.25857 0.064646-0.51714 0.19393-0.7757 0.32321-0.22625 0.096969-0.42018 0.19393-0.6141 0.32321-0.54946-0.4525-1.0666-0.87267-1.6161-1.3252l-0.03232-0.032323c-0.12929 0.096969-0.25857 0.19393-0.35553 0.29089-0.22625 0.16161-0.42017 0.35553-0.58178 0.54946-0.29089 0.25857-0.51714 0.58178-0.77571 0.90499h0.032323c0.42017 0.54946 0.87267 1.0666 1.3252 1.6161-0.12928 0.19393-0.25857 0.42018-0.35553 0.6141-0.12928 0.25857-0.22625 0.54946-0.29089 0.80803-0.064646 0.12928-0.096969 0.25857-0.096969 0.35553-0.71106 0.06465-1.4221 0.12928-2.1009 0.22625-0.064646 0.32321-0.096969 0.64642-0.096969 1.002 0 0.48482 0.032323 0.96963 0.12928 1.4221 0.67874 0.06465 1.3575 0.12928 2.0686 0.19393 0 0.12928 0.032323 0.25857 0.096969 0.35553 0.064646 0.29089 0.1616 0.54946 0.29089 0.84035 0.12928 0.22625 0.22625 0.4525 0.38785 0.64642-0.4525 0.54946-0.90499 1.0666-1.3252 1.6161 0.48482 0.67874 1.0666 1.2605 1.7453 1.7453v-0.03232c0.51714-0.42018 1.0666-0.87267 1.5837-1.3252h0.03232c0.1616 0.09697 0.35553 0.19393 0.51714 0.29089 0.29089 0.12928 0.6141 0.25857 0.90499 0.32321 0.12928 0.03232 0.22625 0.06465 0.32321 0.09697 0.06465 0.67874 0.12928 1.3898 0.22625 2.1009 0.29089 0.03232 0.58178 0.06465 0.90499 0.06465h0.48482c0.35553 0 0.71106-0.03232 1.0666-0.09697 0.06465-0.67874 0.12928-1.3898 0.19393-2.1009 0.09697-0.03232 0.19393-0.06465 0.29089-0.09697 0.29089-0.06464 0.54946-0.1616 0.80803-0.29089 0.22625-0.09697 0.4525-0.22625 0.67874-0.38785 0 0.03232 0 0.03232 0.03232 0.03232 0.51714 0.4525 1.0666 0.90499 1.6161 1.3252 0.09697-0.06465 0.19393-0.12928 0.32321-0.22625 0.19393-0.16161 0.38785-0.35553 0.54946-0.54946 0.29089-0.29089 0.58178-0.6141 0.84035-0.96963-0.4525-0.54946-0.90499-1.0989-1.3575-1.6161v-0.03232c0.09697-0.1616 0.19393-0.35553 0.29089-0.54946 0.09696-0.25857 0.22625-0.51714 0.29089-0.77571 0-0.03232 0-0.06465 0.03232-0.06465 0-0.12928 0.03232-0.22625 0.06465-0.29089 0.71106-0.06465 1.4221-0.12928 2.1009-0.19393 0.06464-0.32321 0.06464-0.64642 0.09697-0.96963v-0.54946c-0.03232-0.32321-0.03232-0.64642-0.09697-0.96963-0.67874-0.06465-1.3898-0.12928-2.1009-0.19393-0.03232-0.09697-0.06465-0.19393-0.06465-0.29089-0.09697-0.29089-0.19393-0.58178-0.32321-0.87267-0.09697-0.19393-0.22625-0.42018-0.32321-0.6141 0.42017-0.51714 0.87267-1.0666 1.3252-1.6161zm-8.6297 2.6827c0.58178-0.6141 1.2928-0.90499 2.1009-0.87267 0.84035-0.03232 1.5191 0.25857 2.1332 0.87267 0.58178 0.58178 0.87267 1.2928 0.87267 2.1009 0 0.84035-0.29089 1.5191-0.87267 2.1332-0.6141 0.58178-1.2928 0.87267-2.1332 0.87267-0.80803 0-1.5191-0.29089-2.1009-0.87267-0.58178-0.6141-0.87267-1.2928-0.87267-2.1332 0-0.80803 0.29089-1.5191 0.87267-2.1009z"/>
 </g>
</svg>
